<?xml version="1.0" encoding="UTF-8"?>
<svg xmlns="http://www.w3.org/2000/svg" xmlns:xlink="http://www.w3.org/1999/xlink" width="1695.34pt" height="474.12pt" viewBox="0 0 1695.34 474.12" version="1.1">
<defs>
<clipPath id="clip1">
  <path d="M 0 0 L 1695.339844 0 L 1695.339844 474.121094 L 0 474.121094 Z M 0 0 "/>
</clipPath>
</defs>
<g id="surface1">
<g clip-path="url(#clip1)" clip-rule="nonzero">
<path style=" stroke:none;fill-rule:nonzero;fill:rgb(0%,0%,0%);fill-opacity:1;" d="M 1383.269531 17.832031 L 1411.71875 17.832031 C 1460.398438 17.832031 1539.25 37.027344 1539.25 128.902344 C 1539.25 213.234375 1469.320313 241.691406 1404.519531 241.691406 L 1363.039063 241.691406 L 1363.039063 37.027344 C 1363.039063 25.371094 1370.238281 17.832031 1383.269531 17.832031 M 1688.378906 461.4375 C 1629.410156 467.605469 1596.839844 370.933594 1567.019531 324.996094 C 1544.738281 291.054688 1497.429688 256.433594 1450.800781 249.574219 C 1527.589844 245.117188 1613.640625 220.4375 1613.640625 133.359375 C 1613.640625 62.738281 1570.101563 9.257813 1410.351563 9.257813 L 1226.261719 9.257813 C 1223.859375 9.257813 1221.460938 10.632813 1221.460938 13.375 C 1221.460938 16.117188 1223.859375 17.832031 1226.261719 17.832031 L 1268.421875 17.832031 C 1277.339844 17.832031 1285.910156 24 1285.910156 41.144531 L 1285.910156 435.039063 C 1285.910156 443.265625 1279.738281 455.609375 1268.769531 455.609375 L 1227.289063 455.609375 C 1223.859375 455.609375 1222.488281 458.351563 1222.488281 459.722656 C 1222.488281 461.09375 1223.859375 464.179688 1227.289063 464.179688 L 1422.691406 464.179688 C 1425.429688 464.179688 1427.828125 462.808594 1427.828125 460.066406 C 1427.828125 457.324219 1426.121094 455.609375 1422.351563 455.609375 L 1382.929688 455.609375 C 1377.78125 455.609375 1363.730469 452.179688 1363.730469 436.753906 L 1363.730469 250.605469 L 1383.949219 250.605469 C 1480.628906 250.605469 1487.828125 355.507813 1535.820313 415.5 C 1576.960938 466.921875 1630.78125 473.433594 1661.289063 473.433594 C 1674.320313 473.433594 1683.230469 473.089844 1691.460938 471.035156 C 1696.601563 469.320313 1697.628906 460.40625 1688.378906 461.4375 M 963.660156 474.121094 C 1113.808594 474.121094 1208.429688 367.847656 1208.429688 237.234375 C 1208.429688 106.621094 1114.839844 0.00390625 963.660156 0.00390625 C 812.820313 0.00390625 718.886719 106.277344 718.886719 236.890625 C 718.886719 367.503906 816.589844 474.121094 963.660156 474.121094 M 801.851563 236.890625 C 801.851563 111.078125 858.070313 9.257813 963.660156 9.257813 C 1067.191406 9.257813 1125.46875 111.078125 1125.46875 236.890625 C 1125.46875 362.703125 1072.328125 464.523438 963.660156 464.523438 C 858.414063 464.863281 801.851563 362.703125 801.851563 236.890625 M 510.453125 9.257813 C 507.027344 9.257813 503.941406 10.632813 503.941406 13.375 C 503.941406 16.117188 505.65625 17.832031 508.742188 17.832031 L 547.480469 17.832031 C 556.394531 17.832031 564.964844 24 564.964844 41.144531 L 564.964844 435.039063 C 564.964844 443.265625 558.792969 455.609375 547.820313 455.609375 L 509.425781 455.609375 C 504.96875 455.609375 504.628906 459.035156 504.628906 460.40625 C 504.628906 461.78125 504.285156 464.179688 509.425781 464.179688 L 695.921875 464.179688 C 698.664063 464.179688 702.433594 463.835938 702.433594 461.09375 C 702.433594 458.351563 701.746094 455.609375 696.945313 455.609375 L 660.953125 455.609375 C 655.808594 455.609375 641.753906 452.523438 641.753906 436.753906 L 641.753906 37.027344 C 641.753906 25.714844 648.953125 18.175781 661.980469 18.175781 L 697.289063 18.175781 C 700.375 18.175781 702.089844 16.460938 702.089844 14.058594 C 702.089844 11.660156 700.375 9.601563 696.261719 9.601563 L 510.453125 9.601563 Z M 142.613281 442.921875 C 142.613281 452.867188 147.066406 455.953125 153.582031 455.953125 L 211.859375 455.953125 C 355.503906 455.953125 407.609375 345.90625 407.609375 235.519531 C 407.609375 125.132813 352.414063 18.175781 231.058594 18.175781 L 151.867188 18.175781 C 143.640625 18.175781 142.953125 25.03125 142.953125 28.113281 Z M 5.144531 9.257813 L 225.230469 9.257813 C 414.464844 9.257813 488.515625 120.332031 488.515625 237.917969 C 488.515625 357.5625 393.554688 464.179688 212.890625 464.179688 L 5.484375 464.179688 C 1.714844 464.179688 0.34375 461.78125 0.34375 459.722656 C 0.34375 457.324219 2.742188 455.265625 6.171875 455.265625 L 44.910156 455.265625 C 56.90625 455.265625 64.792969 448.066406 64.792969 434.695313 L 64.792969 39.425781 C 64.792969 29.484375 59.992188 18.515625 44.222656 18.515625 L 4.800781 18.515625 C 1.714844 18.515625 0 16.460938 0 14.058594 C 0 12.003906 0.6875 9.257813 5.144531 9.257813 "/>
</g>
</g>
</svg>
