<?xml version="1.0" encoding="UTF-8"?>
<svg xmlns="http://www.w3.org/2000/svg" xmlns:xlink="http://www.w3.org/1999/xlink" width="201pt" height="201pt" viewBox="0 0 201 201" version="1.1">
<g id="surface1">
<path style=" stroke:none;fill-rule:nonzero;fill:rgb(0%,0%,0%);fill-opacity:1;" d="M 119.34375 87.90625 L 123.53125 87.90625 L 121.96875 82.085938 L 119.34375 87.90625 M 112.828125 97.753906 C 113.035156 97.542969 113.488281 96.890625 113.710938 96.511719 L 123.421875 77.4375 L 127.855469 96.203125 C 127.855469 96.203125 128.382813 97.574219 128.640625 97.753906 C 128.316406 97.753906 126.75 97.753906 126.320313 97.753906 C 126.160156 97.214844 123.8125 88.902344 123.8125 88.902344 L 118.859375 88.902344 C 118.859375 88.902344 114.941406 97.511719 114.832031 97.753906 C 114.507813 97.753906 112.9375 97.753906 112.828125 97.753906 Z M 132.097656 92.3125 C 132.125 98.992188 140.070313 99.210938 140.085938 91.933594 L 140.097656 78.542969 L 142.308594 78.546875 C 141.757813 78.988281 141.554688 80.992188 141.445313 82.636719 C 141.410156 83.203125 141.015625 91.554688 140.96875 92.375 C 140.367188 101.335938 130.429688 100.039063 129.96875 93.144531 C 129.917969 92.390625 129.753906 80.886719 129.699219 80.480469 C 129.644531 79.539063 129.429688 78.757813 129.027344 78.542969 C 129.320313 78.542969 132.070313 78.542969 132.070313 78.542969 L 132.097656 92.3125 M 144.304688 78.597656 C 161.058594 76.144531 156.898438 87.648438 151.089844 88.753906 C 151.089844 88.753906 158.121094 97.375 158.390625 97.753906 C 158.390625 97.695313 158.191406 80.507813 158.191406 80.507813 C 158.148438 79.121094 157.554688 78.542969 157.554688 78.542969 L 167.59375 78.542969 L 167.59375 80.507813 C 167.59375 80.507813 165.464844 79.460938 160.765625 79.433594 L 160.574219 87.824219 L 167.59375 87.824219 L 167.59375 88.984375 L 160.574219 88.984375 L 160.574219 96.621094 C 160.574219 97.226563 161.085938 97.183594 161.464844 97.183594 C 166.046875 97.183594 168.902344 96.160156 168.902344 96.160156 L 168.089844 97.984375 C 168.089844 97.984375 159.28125 97.996094 158.675781 97.984375 C 158.957031 98.453125 161.304688 100.960938 162.835938 101.902344 C 162.082031 101.605469 158.929688 100.472656 157.773438 99.210938 C 157.398438 98.800781 148.949219 89.882813 148.328125 89.15625 C 156.9375 87.582031 154.027344 77.492188 147.535156 79.191406 L 146.617188 97.753906 L 144.003906 97.753906 C 144.199219 97.472656 144.363281 96.851563 144.4375 96.207031 L 144.894531 80.644531 C 144.882813 79.546875 144.613281 78.980469 144.304688 78.597656 M 77.089844 97.78125 C 77.089844 97.777344 76.78125 80.160156 76.78125 80.160156 C 76.78125 79.53125 76.414063 78.828125 76.050781 78.464844 L 79.191406 78.464844 L 78.992188 96.664063 C 78.960938 96.910156 79.300781 97.71875 79.449219 97.78125 C 79.410156 97.777344 77.089844 97.78125 77.089844 97.78125 M 81.550781 78.464844 L 84.902344 78.464844 L 97.132813 95.328125 L 97.132813 78.464844 L 111.980469 78.464844 L 113.21875 72.820313 C 113.351563 72.066406 113.351563 71.605469 113 71.164063 L 116.480469 71.164063 L 109.09375 102.117188 C 108.910156 102.828125 108.960938 103.449219 110.152344 103.46875 C 113.8125 103.519531 121.359375 102.859375 124.371094 101.824219 L 122.972656 104.273438 L 106.054688 104.273438 C 106.320313 103.925781 106.566406 103.277344 106.808594 102.390625 L 111.59375 80.175781 C 109.777344 79.507813 107.558594 79.464844 105.515625 79.46875 L 104.929688 96.285156 C 104.925781 96.910156 105.027344 97.371094 105.140625 97.78125 C 105.128906 97.78125 102.566406 97.78125 102.554688 97.78125 C 102.738281 97.296875 102.796875 96.890625 102.820313 96.199219 L 102.683594 79.460938 L 99.480469 79.460938 C 98.429688 79.488281 98.644531 80.429688 98.617188 80.835938 L 97.78125 99.347656 L 83.792969 81.433594 L 83.796875 97.78125 C 83.796875 97.78125 81.925781 97.78125 81.953125 97.78125 C 82.128906 97.515625 82.390625 96.671875 82.425781 96.003906 L 82.949219 80.269531 L 81.550781 78.464844 M 198.511719 78.652344 L 198.511719 80.027344 C 196.652344 79.46875 195.347656 79.46875 193.265625 79.46875 C 193.265625 79.46875 192.644531 96.660156 192.644531 96.660156 C 192.621094 97.273438 192.683594 97.515625 192.808594 97.964844 C 192.808594 97.964844 190.335938 97.960938 190.335938 97.957031 C 190.476563 97.492188 190.554688 97.316406 190.597656 96.648438 L 190.484375 79.46875 C 190.484375 79.46875 187.007813 79.46875 186.996094 79.46875 C 185.90625 79.46875 185.90625 80.59375 185.90625 80.996094 C 185.90625 80.996094 185.238281 98.855469 185.210938 99.527344 C 184.96875 99.175781 171.222656 81.617188 171.222656 81.617188 L 171.230469 97.964844 C 171.230469 97.964844 169.953125 97.964844 169.566406 97.964844 C 169.804688 97.433594 169.820313 96.890625 169.855469 96.183594 C 169.855469 96.183594 170.382813 80.9375 170.382813 80.449219 C 170.230469 80.234375 169.15625 78.859375 168.980469 78.648438 C 169.507813 78.648438 172.335938 78.648438 172.335938 78.648438 L 184.566406 95.511719 L 184.566406 78.652344 L 198.511719 78.652344 M 66.609375 87.8125 L 70.597656 87.8125 L 69.171875 82.316406 L 66.609375 87.8125 M 66.113281 89.019531 L 61.078125 99.722656 C 57.671875 106.691406 49.597656 106.257813 44.15625 101.320313 L 45.023438 98.570313 C 52.246094 110.253906 64.34375 101.074219 57.925781 92.945313 L 48.523438 81.8125 C 42.113281 74.414063 38.253906 82.246094 41.816406 85.097656 L 47.09375 89.085938 C 50.976563 91.839844 49.679688 97.695313 44.65625 98.21875 C 42.339844 98.460938 39.6875 97.441406 38.097656 96.347656 L 37.664063 97.828125 L 27.375 97.828125 C 27.554688 97.492188 27.753906 96.875 27.75 96.398438 L 27.722656 79.339844 C 27.734375 79.027344 27.53125 79.007813 27.414063 79.265625 L 18.351563 98.679688 L 14.351563 81.085938 C 14.21875 80.652344 13.945313 81.058594 13.945313 81.058594 C 13.273438 81.988281 10.3125 86.136719 9.785156 86.847656 C 9.390625 87.375 9.230469 87.726563 8.933594 88.589844 C 8.78125 89.019531 5.535156 102.074219 5.390625 102.585938 C 5.257813 103.050781 5.441406 103.992188 5.6875 104.226563 L 2.480469 104.226563 C 2.59375 104.136719 3.113281 103.527344 3.238281 103.050781 L 5.789063 89.867188 C 6.359375 87.273438 5.632813 84.640625 5.632813 84.640625 C 4.054688 75.421875 3.710938 71.445313 2.886719 70.820313 L 5.550781 70.820313 C 5.632813 71.304688 8.703125 85.824219 8.894531 86.527344 C 8.703125 86.824219 19.101563 70.949219 19.101563 70.949219 L 21.796875 70.949219 C 21.796875 70.949219 20.449219 72.21875 20.210938 72.546875 C 20 72.820313 16.761719 77.246094 16.355469 77.796875 L 19.453125 94.472656 L 26.160156 78.417969 L 37.316406 78.417969 L 37.316406 80.234375 C 36.09375 79.628906 31.851563 78.886719 30.175781 79.105469 L 30.015625 87.199219 C 30.023438 87.644531 30.015625 87.679688 30.417969 87.679688 L 37.332031 87.671875 L 37.332031 88.789063 L 29.933594 88.789063 L 29.703125 96.617188 C 29.703125 97.15625 30.09375 97.210938 30.429688 97.222656 C 33.324219 97.335938 36.050781 96.953125 38.066406 96.074219 L 38.542969 94.324219 C 40.765625 97.046875 42.566406 98.019531 44.910156 97.328125 C 47.167969 96.671875 49.328125 93.589844 45.179688 90.703125 L 41.144531 87.847656 C 35.554688 83.625 40.28125 74.496094 48.199219 79.066406 C 48.171875 71.117188 58.292969 67.148438 65.445313 73.21875 L 64.742188 75.832031 C 58.429688 65.585938 46.871094 74.011719 52.214844 81.324219 L 59.78125 91.214844 C 61.480469 93.347656 61.769531 94.886719 61.769531 94.886719 L 70.679688 77.84375 L 75.109375 96.371094 C 75.269531 96.953125 75.59375 97.554688 75.824219 97.78125 C 75.820313 97.78125 73.28125 97.78125 73.277344 97.78125 C 73.28125 97.78125 70.921875 89.023438 70.921875 89.023438 L 66.113281 89.019531 "/>
</g>
</svg>
