<?xml version="1.0" encoding="UTF-8"?>
<svg xmlns="http://www.w3.org/2000/svg" xmlns:xlink="http://www.w3.org/1999/xlink" width="194pt" height="194pt" viewBox="0 0 194 194" version="1.1">
<g id="surface1">
<path style=" stroke:none;fill-rule:evenodd;fill:rgb(100%,100%,100%);fill-opacity:1;" d="M 0.257813 0.675781 L 193.015625 0.675781 L 193.015625 193.433594 L 0.257813 193.433594 L 0.257813 0.675781 "/>
<path style=" stroke:none;fill-rule:evenodd;fill:rgb(13.699341%,12.199402%,12.5%);fill-opacity:1;" d="M 66.34375 83.054688 C 69.710938 88.457031 69.617188 96.847656 66.054688 102.125 C 61.859375 108.738281 54.582031 111.886719 46.886719 110.488281 C 40.753906 109.46875 34.648438 104.035156 32.964844 97.960938 C 30.675781 90.394531 33.121094 82.480469 39.417969 77.585938 C 44.3125 73.675781 52.324219 72.722656 58.046875 75.550781 C 61.289063 76.949219 64.59375 79.875 66.34375 83.054688 "/>
<path style=" stroke:none;fill-rule:evenodd;fill:rgb(13.699341%,12.199402%,12.5%);fill-opacity:1;" d="M 122.511719 76.410156 L 111.386719 76.410156 L 122.449219 74.4375 L 122.511719 74.4375 L 122.511719 76.410156 "/>
<path style=" stroke:none;fill-rule:evenodd;fill:rgb(100%,100%,100%);fill-opacity:1;" d="M 65.199219 84.675781 C 68.027344 89.410156 67.644531 96.722656 64.59375 101.234375 C 60.78125 107.085938 54.359375 110.042969 47.460938 108.835938 C 41.578125 107.910156 35.761719 102.507813 34.425781 96.660156 C 32.644531 89.695313 35.285156 82.894531 41.070313 78.699219 C 45.519531 75.328125 52.734375 74.660156 57.726563 77.363281 C 60.746094 78.792969 63.671875 81.6875 65.199219 84.675781 "/>
<path style=" stroke:none;fill-rule:evenodd;fill:rgb(13.699341%,12.199402%,12.5%);fill-opacity:1;" d="M 7.882813 105.257813 L 29.402344 105.257813 L 29.402344 107.082031 L 5.945313 107.082031 L 5.945313 78.285156 L 7.882813 78.285156 L 7.882813 105.257813 "/>
<path style=" stroke:none;fill-rule:evenodd;fill:rgb(13.699341%,12.199402%,12.5%);fill-opacity:1;" d="M 28.894531 84.214844 L 27.273438 84.214844 C 27.941406 82.273438 28.769531 80.257813 29.53125 78.285156 L 31.851563 78.285156 L 28.894531 84.214844 "/>
<path style=" stroke:none;fill-rule:evenodd;fill:rgb(13.699341%,12.199402%,12.5%);fill-opacity:1;" d="M 93.234375 78.300781 C 96.042969 78.300781 98.863281 79.875 100.132813 82.574219 C 101.5625 85.308594 101.183594 89.253906 99.210938 91.605469 C 97.304688 93.828125 94.632813 94.253906 91.773438 94.222656 L 100.832031 107.082031 L 98.480469 107.082031 L 89.390625 94.222656 L 73.175781 94.222656 L 73.175781 107.082031 L 71.269531 107.082031 L 71.269531 78.300781 L 93.234375 78.300781 "/>
<path style=" stroke:none;fill-rule:evenodd;fill:rgb(13.699341%,12.199402%,12.5%);fill-opacity:1;" d="M 129.1875 80.097656 L 105.792969 80.097656 L 105.792969 91.507813 L 124.898438 91.507813 L 124.898438 93.414063 L 105.792969 93.414063 L 105.792969 105.257813 L 129.203125 105.257813 C 129.203125 105.828125 129.140625 106.507813 129.203125 107.082031 L 144.445313 78.285156 L 146.132813 78.285156 L 161.039063 107.082031 L 158.941406 107.082031 L 154.429688 98.757813 L 135.800781 98.757813 L 131.253906 107.082031 L 103.820313 107.082031 L 103.820313 78.285156 L 129.1875 78.285156 L 129.1875 80.097656 "/>
<path style=" stroke:none;fill-rule:evenodd;fill:rgb(13.699341%,12.199402%,12.5%);fill-opacity:1;" d="M 164.476563 105.257813 L 185.964844 105.257813 L 185.964844 107.082031 L 162.535156 107.082031 L 162.535156 78.285156 L 164.476563 78.285156 L 164.476563 105.257813 "/>
<path style=" stroke:none;fill-rule:evenodd;fill:rgb(100%,100%,100%);fill-opacity:1;" d="M 93.363281 80.128906 C 95.492188 80.222656 97.589844 81.589844 98.449219 83.59375 C 99.433594 85.820313 99.179688 88.808594 97.558594 90.617188 C 96.320313 91.984375 94.664063 92.304688 92.917969 92.367188 L 73.175781 92.367188 L 73.175781 80.097656 L 93.363281 80.128906 "/>
<path style=" stroke:none;fill-rule:evenodd;fill:rgb(100%,100%,100%);fill-opacity:1;" d="M 136.722656 96.882813 L 145.210938 80.699219 L 153.476563 96.882813 Z M 136.722656 96.882813 "/>
<path style=" stroke:none;fill-rule:evenodd;fill:rgb(13.699341%,12.199402%,12.5%);fill-opacity:1;" d="M 188.125 110.929688 L 187.046875 111.503906 C 185.679688 110.042969 183.515625 109.851563 181.640625 110.328125 C 181.132813 110.488281 180.464844 110.835938 180.367188 111.441406 C 180.335938 111.726563 180.367188 112.011719 180.558594 112.203125 C 181.925781 113.1875 183.960938 112.585938 185.613281 112.902344 C 186.726563 113.125 187.902344 113.699219 188.476563 114.808594 C 188.761719 115.507813 188.761719 116.589844 188.347656 117.226563 C 186.855469 119.316406 183.867188 119.386719 181.511719 118.785156 C 180.273438 118.433594 178.96875 117.605469 178.335938 116.367188 L 179.605469 115.796875 C 180.972656 117.765625 183.484375 118.242188 185.710938 117.605469 C 186.25 117.449219 186.855469 117.066406 187.074219 116.496094 C 187.25 115.996094 187.234375 115.414063 186.949219 115.066406 C 185.613281 113.792969 183.546875 114.269531 181.800781 114.046875 C 180.78125 113.921875 179.703125 113.761719 179.160156 112.777344 C 178.8125 111.949219 178.90625 110.835938 179.542969 110.203125 C 181.324219 108.515625 184.53125 108.609375 186.601563 109.628906 C 187.191406 109.957031 187.742188 110.328125 188.125 110.929688 "/>
<path style=" stroke:none;fill-rule:evenodd;fill:rgb(13.699341%,12.199402%,12.5%);fill-opacity:1;" d="M 151.949219 109.136719 C 152.980469 109.136719 154.078125 109.882813 154.589844 110.898438 C 155.003906 111.886719 154.84375 113.1875 154.078125 113.953125 C 153.339844 114.71875 152.480469 115.023438 151.332031 115.023438 C 150.195313 115.023438 148.878906 115.023438 147.15625 115.023438 L 147.15625 118.878906 L 145.75 118.878906 L 145.75 109.136719 L 151.949219 109.136719 "/>
<path style=" stroke:none;fill-rule:evenodd;fill:rgb(13.699341%,12.199402%,12.5%);fill-opacity:1;" d="M 164.632813 118.875 L 163.011719 118.875 L 161.867188 116.558594 L 155.828125 116.558594 L 154.652344 118.875 L 153.125 118.875 L 158.019531 109.121094 L 159.769531 109.121094 L 164.632813 118.875 "/>
<path style=" stroke:none;fill-rule:evenodd;fill:rgb(13.699341%,12.199402%,12.5%);fill-opacity:1;" d="M 172.359375 109.136719 C 173.226563 109.136719 174.011719 109.597656 174.519531 110.390625 C 174.839844 110.964844 174.996094 111.820313 174.742188 112.488281 C 174.355469 113.574219 173.152344 113.960938 172.105469 114.058594 C 173.027344 115.648438 174.105469 117.285156 175.125 118.875 L 173.535156 118.875 L 170.421875 114.058594 L 166.738281 114.058594 L 166.738281 118.875 L 165.300781 118.875 L 165.300781 109.136719 L 172.359375 109.136719 "/>
<path style=" stroke:none;fill-rule:evenodd;fill:rgb(13.699341%,12.199402%,12.5%);fill-opacity:1;" d="M 177.285156 118.875 L 175.824219 118.875 L 175.824219 109.121094 L 177.285156 109.121094 L 177.285156 118.875 "/>
<path style=" stroke:none;fill-rule:evenodd;fill:rgb(100%,100%,100%);fill-opacity:1;" d="M 151.789063 110.34375 C 152.382813 110.34375 153.03125 110.742188 153.285156 111.34375 C 153.507813 111.917969 153.445313 112.710938 153 113.1875 C 152.617188 113.570313 152.242188 113.777344 151.632813 113.777344 L 147.15625 113.777344 L 147.15625 110.34375 L 151.789063 110.34375 "/>
<path style=" stroke:none;fill-rule:evenodd;fill:rgb(100%,100%,100%);fill-opacity:1;" d="M 161.328125 115.351563 L 156.398438 115.351563 L 158.878906 110.328125 C 159.738281 111.949219 160.53125 113.664063 161.328125 115.351563 "/>
<path style=" stroke:none;fill-rule:evenodd;fill:rgb(100%,100%,100%);fill-opacity:1;" d="M 172.359375 110.34375 C 172.765625 110.34375 173.3125 110.613281 173.472656 111.121094 C 173.597656 111.535156 173.503906 112.011719 173.214844 112.332031 C 172.835938 112.679688 172.328125 112.777344 171.851563 112.777344 L 166.738281 112.777344 L 166.738281 110.34375 L 172.359375 110.34375 "/>
</g>
</svg>
